<svg xmlns="http://www.w3.org/2000/svg" viewBox="0 0 378 266"><defs><style>.cls-1,.cls-3{fill:none;}.cls-2{fill:#fff;}.cls-3{stroke:#fff;stroke-miterlimit:10;stroke-width:3px;}.cls-4{fill:#ec6d62;}.cls-5{fill:#70c4cb;}</style></defs><title>employeeShare</title><g id="Layer_2" data-name="Layer 2"><g id="Layer_2-2" data-name="Layer 2"><rect class="cls-1" width="378" height="266"/><path class="cls-2" d="M43.39,65.46l6.76-9.19a2.46,2.46,0,0,1,4,2.91l-6.77,9.19a2.46,2.46,0,1,1-4-2.91Z"/><path class="cls-2" d="M42.18,57.48A2.46,2.46,0,0,1,45.61,57l9.2,6.76a2.46,2.46,0,1,1-2.92,4L42.7,60.92A2.46,2.46,0,0,1,42.18,57.48Z"/><circle class="cls-3" cx="76.28" cy="44.32" r="8.68"/><circle class="cls-3" cx="59.02" cy="103.12" r="5.78"/><path class="cls-2" d="M342.45,217.76l-10.84,3.57a2.46,2.46,0,0,1-1.53-4.67l10.84-3.57a2.46,2.46,0,1,1,1.53,4.67Z"/><path class="cls-2" d="M338.82,225a2.47,2.47,0,0,1-3.11-1.57l-3.56-10.84a2.46,2.46,0,0,1,4.67-1.54l3.56,10.84A2.46,2.46,0,0,1,338.82,225Z"/><circle class="cls-3" cx="303.4" cy="215.91" r="8.68"/><circle class="cls-3" cx="351.57" cy="178.03" r="5.78"/><rect class="cls-4" x="76.42" y="108.15" width="74.55" height="30.47" transform="translate(-39.9 190.9) rotate(-71.07)"/><path d="M161.14,89.15l-2.81,1.38a14.6,14.6,0,0,1-11.21.64l-4.69-1.65a3.6,3.6,0,0,0-.83-.42l-28.86-9.88a4.19,4.19,0,0,0-5.29,2.58L83.23,152.35a4.15,4.15,0,0,0,2.57,5.29l28.82,9.88a4.71,4.71,0,0,0,1.33.23,4.21,4.21,0,0,0,4-2.8l22.84-66.47,1.56.55A23.15,23.15,0,0,0,162,98l2.8-1.38A14.62,14.62,0,0,1,175.94,96l53,18.25c-.55,2.21-1.65,4.83-3.67,6.25-2.26,1.56-5.61,1.56-10,0l-23.63-8.09a4.15,4.15,0,0,0-3.31.27,4.41,4.41,0,0,0-2.07,2.62c0,.14-3.31,12.37-13.74,18-6.57,3.54-14.75,3.67-24.36.41a4.16,4.16,0,1,0-2.71,7.86A48.4,48.4,0,0,0,161,144.4a32,32,0,0,0,15.45-3.77c9.33-5,14.15-13.79,16.36-19l19.72,6.76c7,2.43,12.91,2.07,17.46-1.11,7.31-5,7.68-15.3,7.73-15.76a4.19,4.19,0,0,0-2.81-4L178.6,88.05A23.25,23.25,0,0,0,161.14,89.15Zm-47.71,69.13-21-7.17,21.46-62.65,21,7.17Z"/><rect class="cls-5" x="258.7" y="86.56" width="30.47" height="74.55" transform="translate(-26.55 133) rotate(-26.07)"/><path d="M271.54,163l-9.88,9.11a126.83,126.83,0,0,1-30,20.5L179.2,218.26a4.68,4.68,0,0,1-4.09-8.41l.64-.32h0l28.68-14A4.16,4.16,0,1,0,200.8,188l-28.68,14h0l-14.43,7.08a4.66,4.66,0,0,1-6.25-2.16,4.5,4.5,0,0,1-.23-3.54,4.61,4.61,0,0,1,2.34-2.67l10.9-5.33h0l31.16-15.26a4.16,4.16,0,1,0-3.63-7.49L160.77,188h0l-1.2.6-14.89,7.31a4.54,4.54,0,0,1-3.54.23,4.66,4.66,0,0,1-.5-8.6l5.14-2.52h0l10.53-5.15,2.94-1.43h0l24.18-11.86a4.16,4.16,0,1,0-3.63-7.49l-26.2,12.83-11.45,5.6a4.68,4.68,0,0,1-6.25-2.16,4.54,4.54,0,0,1-.23-3.54,4.64,4.64,0,0,1,2.35-2.66l20-9.79a4.16,4.16,0,1,0-3.63-7.49l-20,9.79a12.81,12.81,0,0,0-6.58,7.44,13.07,13.07,0,0,0,.6,9.93,12.92,12.92,0,0,0,4,4.73A13.05,13.05,0,0,0,131,197.4a12.81,12.81,0,0,0,7.45,6.57,13,13,0,0,0,4.13.69,12.54,12.54,0,0,0,1.34,6,13,13,0,0,0,11.67,7.26,12.63,12.63,0,0,0,5.7-1.33l2.94-1.43a13.41,13.41,0,0,0,1.24,4.55A13,13,0,0,0,177.18,227a12.64,12.64,0,0,0,5.7-1.34L235.32,200a134.46,134.46,0,0,0,32-21.84L279,167.38l26.85-13.14a4.17,4.17,0,0,0,1.93-5.57L275,81.8a4.16,4.16,0,0,0-5.56-1.93L242,93.24a4.16,4.16,0,0,0-1.93,5.56Zm-2.2-73.81,29.09,59.52-19.9,9.74-29.1-59.52Z"/></g></g></svg>