<svg xmlns="http://www.w3.org/2000/svg" viewBox="0 0 429 95"><defs><style>.cls-1{fill:#fff;}.cls-2{fill:#58595b;}.cls-3{fill:#0094d9;}</style></defs><title>navLogo_1</title><g id="Layer_2" data-name="Layer 2"><g id="Layer_2-2" data-name="Layer 2"><rect class="cls-1" width="429" height="95" rx="26.28"/><text/><path class="cls-2" d="M126.05,59.06a.79.79,0,0,1,.35.54,1.42,1.42,0,0,1-.27.69A8.21,8.21,0,0,1,125,61.58a19.4,19.4,0,0,1-2.35,1.94,13.16,13.16,0,0,1-3.87,1.83,16.82,16.82,0,0,1-5.08.75,14.31,14.31,0,0,1-10.3-3.95q-4.14-3.94-4.14-10.61c0-4.45,1.38-7.95,4.14-10.53a14.26,14.26,0,0,1,10.12-3.86q6,0,9,4.23h.06l-.06-3.15a.67.67,0,0,1,.77-.74h2.23c.47,0,.7.25.7.74V48a.61.61,0,0,1-.7.69h-2.7a.62.62,0,0,1-.71-.69V47a5.43,5.43,0,0,0-2.4-4,9.21,9.21,0,0,0-6-1.89,9.44,9.44,0,0,0-6.6,2.81,9.92,9.92,0,0,0-3,7.63,10.15,10.15,0,0,0,2.94,7.67,9.24,9.24,0,0,0,6.57,2.84,11.91,11.91,0,0,0,6.19-1.52,9.83,9.83,0,0,0,3.44-2.95c.27-.46.6-.51,1-.17Z"/><path class="cls-2" d="M142.82,65.7H131.61c-.51,0-.76-.23-.76-.69V62.55c0-.45.25-.68.76-.68h3.23V41.38h-3.23c-.51,0-.76-.23-.76-.69V38.23c0-.45.25-.68.76-.68h6.87c.5,0,.76.23.76.68v7.16h.18a7.58,7.58,0,0,1,1.23-2.52A12,12,0,0,1,143,40.2a12.15,12.15,0,0,1,3.63-1.91,15.86,15.86,0,0,1,5.38-.86.67.67,0,0,1,.76.75v3A.67.67,0,0,1,152,42h-1.24a10.58,10.58,0,0,0-8,3.15,10.12,10.12,0,0,0-3,7.15v9.62h3.11c.51,0,.76.23.76.68V65C143.58,65.47,143.33,65.7,142.82,65.7Z"/><path class="cls-2" d="M180.92,52.2H159.79a10.09,10.09,0,0,0,3.08,7.32,9.37,9.37,0,0,0,6.43,2.58,12,12,0,0,0,6.13-1.49,9.65,9.65,0,0,0,3.43-2.92.72.72,0,0,1,1.06-.18l1.58,1.55a.91.91,0,0,1,.35.6,1.27,1.27,0,0,1-.26.66,10.25,10.25,0,0,1-1.08,1.26,18.06,18.06,0,0,1-2.32,1.94,13.16,13.16,0,0,1-3.87,1.83,16.82,16.82,0,0,1-5.08.75,14.31,14.31,0,0,1-10.3-3.95q-4.14-3.94-4.14-10.61c0-4.45,1.37-7.95,4.11-10.53A14.12,14.12,0,0,1,169,37.15c4,0,7.09,1.25,9.35,3.74s3.41,5.87,3.41,10.1v.46C181.74,52,181.46,52.2,180.92,52.2ZM174.58,43A7.62,7.62,0,0,0,169,40.92a9.6,9.6,0,0,0-6,1.95,8.23,8.23,0,0,0-3,5.84h17A8.29,8.29,0,0,0,174.58,43Z"/><path class="cls-2" d="M199.48,66.1a12,12,0,0,1-6.27-1.43A7.31,7.31,0,0,1,190.27,62h-.12c.08,1.87.12,2.86.12,3,0,.49-.27.74-.82.74h-2a.66.66,0,0,1-.76-.74V56.37a.66.66,0,0,1,.76-.74h2.29c.55,0,.82.25.82.74v1.14A6.79,6.79,0,0,0,193,60.66a8.81,8.81,0,0,0,5.57,1.72c4.38,0,6.58-1.49,6.58-4.46a2.82,2.82,0,0,0-1.82-2.49,20.29,20.29,0,0,0-4.43-1.58q-2.62-.62-5.2-1.43a10.57,10.57,0,0,1-4.4-2.6,6.15,6.15,0,0,1-1.82-4.55,7.18,7.18,0,0,1,2.76-5.92,10.93,10.93,0,0,1,7-2.2c3.88,0,6.65,1.1,8.34,3.31h.11c-.08-1.37-.11-2.08-.11-2.11a.67.67,0,0,1,.76-.75th1.88a.67.67,0,0,1,.76.75V46.3a.67.67,0,0,1-.76.74H206c-.55,0-.82-.25-.82-.74v-.8a4.15,4.15,0,0,0-1.85-3.06,7.33,7.33,0,0,0-4.79-1.52,7.62,7.62,0,0,0-4.57,1.2,3.71,3.71,0,0,0-1.65,3.13,3.29,3.29,0,0,0,1.85,3,16.13,16.13,0,0,0,4.49,1.66q2.64.6,5.28,1.34a10.86,10.86,0,0,1,4.49,2.46,6.15,6.15,0,0,1,1.85,4.75,6.92,6.92,0,0,1-2.67,5.35Q204.94,66.1,199.48,66.1Z"/><path class="cls-2" d="M233.87,62.78a.7.7,0,0,1,.23.49,1,1,0,0,1-.35.6,9.63,9.63,0,0,1-6.49,2.23,8.65,8.65,0,0,1-6.39-2.49q-2.51-2.49-2.5-7.24v-15th-3.28c-.55,0-.83-.25-.83-.74V38.29c0-.5.28-.74.83-.74h3.28V31.77a.72.72,0,0,1,.82-.8h3.29c.51,0,.76.26.76.8v5.78h7.46c.54,0,.82.24.82.74v2.35c0,.49-.28.74-.82.74h-7.46V56.26a6.26,6.26,0,0,0,1.32,4.32,5.25,5.25,0,0,0,6.84.37.66.66,0,0,1,1.06.06Z"/><path class="cls-3" d="M263,59.06a.76.76,0,0,1,.35.54,1.38,1.38,0,0,1-.26.69A8.42,8.42,0,0,1,262,61.58a19.19,19.19,0,0,1-2.34,1.94,13.1,13.1,0,0,1-3.88,1.83,16.71,16.71,0,0,1-5.07.75,14.31,14.31,0,0,1-10.3-3.95q-4.14-3.94-4.14-10.61c0-4.45,1.38-7.95,4.14-10.53a14.26,14.26,0,0,1,10.12-3.86q6,0,9,4.23h.06l-.06-3.15a.66.66,0,0,1,.76-.74h2.23a.64.64,0,0,1,.71.74V48a.62.62,0,0,1-.71.69h-2.7a.61.61,0,0,1-.7-.69V47c0-1.38-.85-2.69-2.41-4a9.21,9.21,0,0,0-6-1.89A9.48,9.48,0,0,0,244.2,44a10,10,0,0,0-3,7.63,10.18,10.18,0,0,0,2.93,7.67,9.26,9.26,0,0,0,6.58,2.84,11.93,11.93,0,0,0,6.19-1.52,9.87,9.87,0,0,0,3.43-2.95.58.58,0,0,1,1-.17Z"/><path class="cls-3" d="M293.86,65.7h-5.1c-1.69,0-2.53-.8-2.53-2.4V60.38h-.11a13.55,13.55,0,0,1-11.45,5.78A10.79,10.79,0,0,1,267.75,64a7,7,0,0,1-2.7-5.81,7.29,7.29,0,0,1,4.19-6.89q4.2-2.2,11.53-2.21h4.93v-.68q0-7.16-7.63-7.15a14.62,14.62,0,0,0-5.16.65A19.91,19.91,0,0,0,270.65,43l-1,.63c-.58.46-1,.5-1.29.12l-1.64-2c-.27-.3-.24-.61.12-.91a9.82,9.82,0,0,1,4.11-2.46,20.29,20.29,0,0,1,7.33-1.2q12.33,0,12.33,11.44V61.87h3.28a.62.62,0,0,1,.71.68V65A.62.62,0,0,1,293.86,65.7ZM285.7,52.54h-4.63a38.14,38.14,0,0,0-5.64.34,8.52,8.52,0,0,0-3.78,1.49,3.68,3.68,0,0,0-1.56,3.14,4,4,0,0,0,1.68,3.3,7,7,0,0,0,4.37,1.29,11.76,11.76,0,0,0,9.56-4.93Z"/><path class="cls-3" d="M308.63,78.57h-11.8c-.51,0-.76-.23-.76-.68V75.43c0-.46.25-.69.76-.69h3.29V41.38H297c-.51,0-.76-.23-.76-.69V38.23c0-.45.25-.68.76-.68h6.87c.5,0,.76.23.76.68l-.06,4.52h.06a9.89,9.89,0,0,1,3.61-4,11,11,0,0,1,6.13-1.62,12.43,12.43,0,0,1,9.57,3.92q3.63,3.91,3.63,10.41A15.42,15.42,0,0,1,324,62a12.12,12.12,0,0,1-9.57,4.06,10.71,10.71,0,0,1-6.07-1.63,9.47,9.47,0,0,1-3.5-4h-.17c.11,1.22.17,2.1.17,2.63V74.74h3.82c.51,0,.76.23.76.69v2.46C309.39,78.34,309.14,78.57,308.63,78.57Zm-3.94-26.83c0,3.32.9,5.87,2.68,7.67a8.77,8.77,0,0,0,6.45,2.69,8.12,8.12,0,0,0,6.34-2.9,11.06,11.06,0,0,0,2.55-7.61A11,11,0,0,0,320.16,44a8.21,8.21,0,0,0-6.37-2.86A8.52,8.52,0,0,0,307.34,44C305.58,45.82,304.69,48.42,304.69,51.74Z"/><path class="cls-3" d="M341.52,65.7H330.31c-.51,0-.76-.23-.76-.69V62.55c0-.45.25-.68.76-.68h3.23V41.38h-3.23c-.51,0-.76-.23-.76-.69V38.23c0-.45.25-.68.76-.68h7.4a.61.61,0,0,1,.7.68V61.87h3.11c.51,0,.77.23.77.68V65C342.29,65.47,342,65.7,341.52,65.7ZM338.2,29.08a3.12,3.12,0,0,1,1,2.29,2.93,2.93,0,0,1-1,2.23,3.4,3.4,0,0,1-4.63,0,2.93,2.93,0,0,1-1-2.23,3.27,3.27,0,0,1,5.6-2.29Z"/><path class="cls-3" d="M366.92,62.78a.68.68,0,0,1,.24.49,1,1,0,0,1-.35.6,9.63,9.63,0,0,1-6.49,2.23,8.65,8.65,0,0,1-6.39-2.49q-2.51-2.49-2.5-7.24v-15th-3.28c-.55,0-.83-.25-.83-.74V38.29c0-.5.28-.74.83-.74h3.28V31.77c0-.54.27-.8.82-.8h3.29c.51,0,.76.26.76.8v5.78h7.46c.54,0,.82.24.82.74v2.35c0,.49-.28.74-.82.74H356.3V56.26a6.26,6.26,0,0,0,1.32,4.32,5.25,5.25,0,0,0,6.84.37.66.66,0,0,1,1.06.06Z"/><path class="cls-3" d="M393.5,65.7h-5.11q-2.52,0-2.52-2.4V60.38h-.12a13.55,13.55,0,0,1-11.44,5.78A10.8,10.8,0,0,1,367.38,64a7,7,0,0,1-2.7-5.81,7.28,7.28,0,0,1,4.2-6.89q4.2-2.2,11.53-2.21h4.93v-.68q0-7.16-7.63-7.15a14.54,14.54,0,0,0-5.16.65A19.08,19.08,0,0,0,370.29,43l-1,.63q-.88.69-1.29.12l-1.65-2c-.27-.3-.23-.61.12-.91a10,10,0,0,1,4.11-2.46,20.33,20.33,0,0,1,7.33-1.2q12.33,0,12.33,11.44V61.87h3.29a.61.61,0,0,1,.7.68V65A.61.61,0,0,1,393.5,65.7Zm-8.16-13.16H380.7a37.9,37.9,0,0,0-5.63.34,8.51,8.51,0,0,0-3.79,1.49,3.7,3.7,0,0,0-1.55,3.14,4,4,0,0,0,1.67,3.3,7,7,0,0,0,4.37,1.29,11.76,11.76,0,0,0,9.57-4.93Z"/><path class="cls-3" d="M407.73,65.7h-11.2c-.51,0-.77-.23-.77-.69V62.55c0-.45.26-.68.77-.68h3.22V28.45th-3.22c-.51,0-.77-.23-.77-.69V25.3c0-.46.26-.68.77-.68H403c1.06,0,1.58.47,1.58,1.42V61.87h3.11c.51,0,.77.23.77.68V65C408.5,65.47,408.24,65.7,407.73,65.7Z"/><path class="cls-3" d="M77.23,54.14a25.23,25.23,0,1,1-.09-12.38h7.1a32.15,32.15,0,1,0,.06,12.38Z"/><path class="cls-2" d="M52.47,27.82A20.45,20.45,0,0,0,33.09,41.76h7.23A13.81,13.81,0,1,1,40,54.14H32.87a20.46,20.46,0,1,0,19.6-26.32Z"/><path class="cls-3" d="M58.65,48a6.24,6.24,0,1,1-6.24-6.24A6.24,6.24,0,0,1,58.65,48Z"/></g></g></svg>